<svg width="16" height="16" viewBox="0 0 16 16" fill="none" xmlns="http://www.w3.org/2000/svg">
<path d="M6.36531 2.43012L6.90615 3.39923C7.39424 4.2738 7.1983 5.42108 6.42958 6.18981C6.42957 6.18981 6.42958 6.18981 6.42957 6.18982C6.42948 6.18991 5.49722 7.12235 7.18775 8.81288C8.87772 10.5029 9.81014 9.57173 9.81081 9.57106C9.81084 9.57104 9.81083 9.57105 9.81085 9.57103C10.5796 8.80232 11.7268 8.6064 12.6014 9.09447L13.5705 9.63532C14.8911 10.3723 15.0471 12.2243 13.8863 13.3851C13.1888 14.0826 12.3343 14.6254 11.3897 14.6612C9.79963 14.7215 7.09922 14.319 4.3904 11.6102C1.68159 8.90141 1.27916 6.201 1.33944 4.61089C1.37525 3.66631 1.91799 2.81184 2.61549 2.11434C3.77628 0.953548 5.6283 1.10951 6.36531 2.43012Z" stroke="#5C59F3" stroke-width="1.25" stroke-linecap="round"/>
</svg>
