<svg width="20" height="20" viewBox="0 0 20 20" fill="none" xmlns="http://www.w3.org/2000/svg">
<path d="M10.0007 18.3334C14.603 18.3334 18.334 14.6024 18.334 10C18.334 5.39765 14.603 1.66669 10.0007 1.66669C5.39828 1.66669 1.66732 5.39765 1.66732 10C1.66732 11.3331 1.98033 12.593 2.53687 13.7104C2.68477 14.0073 2.73399 14.3467 2.64825 14.6672L2.15191 16.5222C1.93645 17.3275 2.67316 18.0642 3.47844 17.8488L5.33347 17.3524C5.65393 17.2667 5.99332 17.3159 6.29026 17.4638C7.40762 18.0203 8.66758 18.3334 10.0007 18.3334Z" stroke="#5C59F3" stroke-width="1.25"/>
<path d="M7.5 10.0666L9.16667 11.6666L12.5 8.33331" stroke="#5C59F3" stroke-width="1.25" stroke-linecap="round" stroke-linejoin="round"/>
</svg>
