<svg width="20" height="20" viewBox="0 0 20 20" fill="none" xmlns="http://www.w3.org/2000/svg">
<path d="M2.72843 12.7464C2.02015 11.8262 1.66602 11.3661 1.66602 9.99998C1.66602 8.63383 2.02015 8.17375 2.72843 7.25359C4.14265 5.41628 6.51444 3.33331 9.99935 3.33331C13.4843 3.33331 15.856 5.41628 17.2703 7.25359C17.9785 8.17375 18.3327 8.63383 18.3327 9.99998C18.3327 11.3661 17.9785 11.8262 17.2703 12.7464C15.856 14.5837 13.4843 16.6666 9.99935 16.6666C6.51444 16.6666 4.14265 14.5837 2.72843 12.7464Z" stroke="#5C59F3" stroke-width="1.25"/>
<path d="M12.5 10C12.5 11.3807 11.3807 12.5 10 12.5C8.61929 12.5 7.5 11.3807 7.5 10C7.5 8.61929 8.61929 7.5 10 7.5C11.3807 7.5 12.5 8.61929 12.5 10Z" stroke="#5C59F3" stroke-width="1.25"/>
</svg>
