<svg width="18" height="14" viewBox="0 0 18 14" fill="none" xmlns="http://www.w3.org/2000/svg">
<path d="M8.99935 6.99998L11.4401 9.46473C13.8518 11.9001 15.0577 13.1178 16.0981 12.7769C16.1875 12.7476 16.2745 12.7112 16.3583 12.6681C17.3327 12.1663 17.3327 10.4442 17.3327 6.99998C17.3327 3.55579 17.3327 1.8337 16.3583 1.33185C16.2745 1.28872 16.1875 1.25233 16.0981 1.22302C15.0577 0.882118 13.8518 2.09982 11.4401 4.53523L8.99935 6.99998ZM8.99935 6.99998L6.55857 4.53523C4.14685 2.09982 2.94099 0.882119 1.90059 1.22302C1.81116 1.25233 1.72416 1.28872 1.6404 1.33186C0.666015 1.8337 0.666015 3.55579 0.666015 6.99998C0.666016 10.4442 0.666016 12.1663 1.6404 12.6681C1.72416 12.7112 1.81116 12.7476 1.90059 12.7769C2.94099 13.1178 4.14685 11.9001 6.55857 9.46473L8.99935 6.99998Z" stroke="#5C59F3" stroke-width="1.25"/>
</svg>
